<svg width="40" height="40" viewBox="0 0 40 40" fill="none" xmlns="http://www.w3.org/2000/svg">
<path d="M39.3207 18.7341C39.2982 18.5316 39.2757 18.3178 39.2419 18.1152C39.1857 17.6652 39.1406 17.2038 39.0731 16.7425C38.6118 13.4795 37.4079 10.4866 35.5176 7.86493C33.8974 5.60334 31.8383 3.76932 29.4192 2.41912C27.2251 1.19268 24.806 0.427559 22.2181 0.135015C21.4755 0.0450013 20.7104 0 19.9678 0C18.6513 0 17.3461 0.135018 16.0409 0.405059V0.39381L15.8496 0.450068C15.5458 0.517578 15.2533 0.585078 14.9495 0.663839C14.5669 0.765105 14.1731 0.888884 13.7906 1.01265C13.4418 1.11392 13.1492 1.20393 12.8679 1.30519C9.81872 2.39661 7.16331 4.23064 4.96923 6.76227C2.77515 9.28265 1.28993 12.1968 0.536064 15.4036C0.00723414 17.6652 -0.127788 19.9268 0.11975 22.1321C0.378539 24.3824 0.95237 26.4865 1.83 28.3768C2.7864 30.4246 4.0916 32.2474 5.70059 33.7889C7.50086 35.5104 9.61618 36.8493 12.1703 37.8845C13.2842 38.3345 14.3757 38.5483 15.3883 38.7059C15.9171 38.8184 16.4685 38.9084 17.0086 38.9759C17.1998 38.9984 17.3799 39.0209 17.5711 39.0434C18.1562 39.1447 18.8988 39.1897 19.7877 39.1897C20.1478 39.1897 20.4966 39.1784 20.8229 39.1672L20.5528 39.2797L21.723 39.1222C22.2181 39.0884 22.6119 39.0322 22.8144 38.9984L22.8707 38.9871C22.9044 38.9759 22.927 38.9646 22.9495 38.9534C24.4347 38.7396 25.8636 38.3908 27.1913 37.8957C28.9579 37.2319 30.6006 36.343 32.0521 35.2291C33.7848 33.9014 35.2588 32.2924 36.4065 30.4246C37.5542 28.5793 38.3418 26.6215 38.7581 24.585C38.8931 23.9099 38.9944 23.2235 39.0844 22.5484C39.1294 22.2334 39.1744 21.9296 39.2194 21.6145C39.2307 21.5583 39.2419 21.4908 39.2532 21.4345L39.2757 21.3332L39.2869 18.8016L39.3207 18.7341ZM23.8833 6.0084C25.3461 6.0084 26.5613 7.23484 26.55 8.67506C26.5387 10.1153 25.3236 11.3417 23.8833 11.3417C22.4431 11.3417 21.2279 10.1153 21.2279 8.67506C21.2392 7.23484 22.4544 6.0084 23.8833 6.0084ZM26.8425 34.9815C25.8299 36.523 24.4797 37.6482 22.8482 38.3345C22.4881 38.3795 22.1168 38.4246 21.7455 38.4583C20.4403 38.5708 19.0901 38.5596 17.7062 38.4133C17.2223 38.3233 16.7498 38.2558 16.2884 38.1883C16.0409 38.1545 15.7934 38.1208 15.5458 38.0757C14.1281 37.7832 12.7554 37.3331 11.4615 36.7481C10.0438 36.1067 8.7273 35.2966 7.54587 34.3514C6.46571 33.4851 5.49807 32.5174 4.66544 31.4598C3.66404 30.1883 2.83141 28.7931 2.20131 27.2966C1.61623 25.8902 1.22242 24.5512 0.997388 23.1785C0.918626 22.6609 0.851113 22.1208 0.783603 21.592C0.749848 21.3557 0.727339 21.1194 0.693584 20.8832V18.6553C0.693584 18.6441 0.693581 18.6441 0.704833 18.6328C0.716084 18.5766 0.738593 18.509 0.738593 18.4303C0.862362 16.9 1.1549 15.4036 1.60497 14.0084C2.19006 12.1968 3.03394 10.4866 4.1366 8.92259C5.4643 7.03231 7.11831 5.38957 9.04236 4.05061C10.5951 2.97045 12.2603 2.13782 14.0044 1.55273C14.2969 1.46271 14.6007 1.38396 14.9045 1.30519C15.0508 1.26019 15.2083 1.22644 15.3546 1.18143C15.3096 1.50773 15.2758 1.82278 15.2308 2.13782C15.0958 3.15048 14.972 4.11812 14.8707 5.08576C14.6795 6.76227 14.5219 8.76507 14.7582 10.8129C14.9607 12.5907 15.4446 14.0646 16.2209 15.3361C16.9635 16.5512 17.8862 17.5864 18.9776 18.3965C20.069 19.2179 21.2054 20.0168 22.3644 20.7481C22.7357 20.9844 23.1295 21.1532 23.5233 21.322C23.7933 21.4345 24.0521 21.547 24.2997 21.682C25.9199 22.5372 27.0901 23.5611 27.8777 24.8213C28.5865 25.9577 28.9241 27.2516 28.8791 28.6581C28.7778 30.9534 28.1027 33.0687 26.8425 34.9815Z" fill="white"/>
<path d="M15.7506 24.7412H15.7055C13.9053 24.7412 12.4988 26.1139 12.4426 27.9479C12.3975 29.7257 13.8378 31.2109 15.6605 31.2559C15.683 31.2559 15.7168 31.2559 15.7506 31.2559C17.4946 31.2559 18.9348 29.8045 18.9685 28.0155C18.9798 27.1603 18.6535 26.3389 18.0459 25.7201C17.4383 25.1013 16.6282 24.7525 15.7506 24.7412Z" fill="white"/>
</svg>
