<svg width="25" height="40" viewBox="0 0 25 40" fill="none" xmlns="http://www.w3.org/2000/svg">
<path d="M10.8021 21.0645C11.0842 21.2538 11.4652 21.1779 11.6538 20.897C11.6901 20.8428 11.7279 20.79 11.7663 20.7372C11.9657 20.4631 11.9051 20.0792 11.631 19.8799C11.3569 19.6806 10.973 19.7411 10.7736 20.0152C10.7262 20.0806 10.6795 20.1459 10.6346 20.2129C10.4457 20.4943 10.5207 20.8756 10.8021 21.0645Z" fill="white"/>
<path d="M38.6659 38.0522H33.737C37.4365 34.9344 35.2569 28.846 30.3804 28.846H29.9452C30.2474 27.7774 30.0294 27.3498 29.2019 23.6271C28.443 20.213 25.8846 17.3724 22.3759 16.3499C23.2114 15.7871 23.8643 14.974 24.2284 14.0195C24.3559 13.938 24.3226 13.9603 25.1062 12.9003C27.8303 9.21538 25.9615 4.31969 22.0948 2.88514V2.45498C22.0948 1.10129 20.9935 0 19.6398 0C18.2862 0 17.1849 1.10129 17.1849 2.45498V2.88514C13.317 4.32008 11.4503 9.21669 14.1734 12.9003C14.96 13.9643 14.9237 13.938 15.0513 14.0195C15.4152 14.9735 16.0675 15.7861 16.9022 16.3489C15.5974 16.7292 14.3753 17.3792 13.3236 18.2672C13.0646 18.4858 13.0319 18.873 13.2506 19.132C13.4692 19.391 13.8564 19.4237 14.1154 19.205C16.3792 17.2936 19.5115 16.6593 22.4051 17.6466C21.5163 20.9877 18.8022 23.4965 15.3581 24.1041L14.8938 24.1861L15.329 22.2279C15.4025 21.897 15.1939 21.5692 14.863 21.4957C14.5321 21.4221 14.2042 21.6308 14.1307 21.9616C13.9881 22.6035 13.1939 26.1774 13.01 27.0047H12.2749C11.936 27.0047 11.6612 27.2795 11.6612 27.6185C11.6612 27.9574 11.936 28.2322 12.2749 28.2322H14.581C16.424 28.2322 18.1567 27.5145 19.4601 26.2112C19.5799 26.0914 19.6398 25.9343 19.6398 25.7772C19.6498 25.7772 19.6102 26.0018 19.8196 26.2112C22.0671 28.4587 24.3389 28.2323 27.0048 28.2323C27.3437 28.2323 27.6185 27.9575 27.6185 27.6185C27.6185 27.2796 27.3437 27.0048 27.0048 27.0048H26.2696L25.4512 23.3223H27.8536C27.9767 23.7371 27.9134 23.4905 28.7946 27.4557C29.093 28.7983 28.0696 30.0735 26.6947 30.0735H21.5801C22.2615 28.6432 21.2063 27.0048 19.6397 27.0048C19.3007 27.0048 19.0259 27.2796 19.0259 27.6185C19.0259 27.9575 19.3007 28.2323 19.6397 28.2323C19.8854 28.2323 20.1165 28.3281 20.2905 28.502C20.8656 29.077 20.4627 30.0735 19.6398 30.0735H12.5848C11.3987 30.0735 10.4337 29.1085 10.4337 27.9223C10.4337 27.6007 10.4143 27.7649 11.2759 23.894C11.3622 23.5061 11.4761 23.1228 11.6138 22.7549C11.7326 22.4374 11.5716 22.0838 11.2541 21.965C10.9367 21.8462 10.583 22.0072 10.4642 22.3247C10.3067 22.7456 10.1765 23.1837 10.0778 23.6273C9.24546 27.367 9.03394 27.7864 9.3356 28.846H8.8993C4.0465 28.846 1.8341 34.9231 5.53867 38.0522H0.613745C0.274804 38.0522 0 38.327 0 38.6659C0 39.0049 0.274804 39.2797 0.613745 39.2797H38.6659C39.0049 39.2797 39.2797 39.0049 39.2797 38.6659C39.2797 38.327 39.0049 38.0522 38.6659 38.0522ZM15.9574 12.2749C15.9574 8.90391 15.9402 8.99543 16.0089 8.58806C16.6157 8.54533 17.1516 8.19004 17.4274 7.63852C17.4682 7.55658 17.5315 7.48738 17.6078 7.44005C17.7784 7.33548 17.5707 7.36494 21.409 7.36494C21.9309 7.36494 21.7696 7.88931 22.4898 8.33619C22.7276 8.48203 22.9953 8.56811 23.2707 8.58798C23.3431 9.01699 23.3223 8.9672 23.3223 12.2749C23.3223 14.3054 21.6703 15.9574 19.6398 15.9574C17.6093 15.9574 15.9574 14.3054 15.9574 12.2749ZM13.9866 38.0522C13.4579 38.0522 13.3124 37.3162 13.8067 37.1185C16.3875 36.0863 16.2211 36.1589 16.2978 36.1079C17.5988 35.2418 17.8447 34.9835 18.5248 34.9835C19.2943 34.9835 19.9747 35.4739 20.218 36.2038L20.285 36.4051C20.3865 36.7093 20.7046 36.8842 21.0162 36.8064L28.846 34.8489V38.0522H13.9866ZM10.4337 34.8489L13.9671 35.7322L13.3509 35.9787C12.5141 36.3135 12.0984 37.2175 12.3451 38.0521H10.4337V34.8489Z" fill="white"/>
</svg>
