<svg width="39" height="39" viewBox="0 0 39 39" fill="none" xmlns="http://www.w3.org/2000/svg">
<g clip-path="url(#clip0_101_253)">
<path d="M0 19.5C0 8.73033 8.73033 0 19.5 0C30.2697 0 39 8.73033 39 19.5C39 30.2697 30.2697 39 19.5 39C8.73033 39 0 30.2697 0 19.5Z" fill="white"/>
<path d="M13.7565 14.7688C13.7565 16.1069 13.1134 17.1911 12.3199 17.1911C11.5264 17.1911 10.8826 16.1069 10.8826 14.7688C10.8826 13.4308 11.5264 12.3473 12.3199 12.3473C13.1134 12.3473 13.7565 13.4315 13.7565 14.7688Z" fill="#EF5DA8"/>
<path d="M28.1212 14.7688C28.1212 16.1069 27.4773 17.1911 26.6839 17.1911C25.8904 17.1911 25.2473 16.1069 25.2473 14.7688C25.2473 13.4308 25.8904 12.3473 26.6839 12.3473C27.4773 12.3473 28.1212 13.4315 28.1212 14.7688Z" fill="#EF5DA8"/>
<path d="M6.39685 21.3436C7.13998 27.9247 12.7212 33.0394 19.5001 33.0394C26.279 33.0394 31.8603 27.9247 32.6034 21.3436H6.39685Z" fill="#EF5DA8"/>
</g>
<defs>
<clipPath id="clip0_101_253">
<rect width="39" height="39" fill="white"/>
</clipPath>
</defs>
</svg>
