<svg width="40" height="37" viewBox="0 0 40 37" fill="none" xmlns="http://www.w3.org/2000/svg">
<path d="M34.744 19.8454C33.6383 19.2871 32.4099 18.9967 31.2037 18.9967C28.5793 18.9967 26.368 20.3592 25.4299 22.5481C24.6817 24.2903 24.7822 26.9371 25.6644 28.5565C26.234 29.6062 27.5183 30.723 29.4392 30.723C29.8189 30.723 30.2098 30.6784 30.6007 30.6002C31.6616 30.3768 33.1581 28.791 33.5155 27.529C33.7835 26.5797 32.7561 24.9604 31.6951 24.201C31.6169 24.1451 31.5276 24.1451 31.4606 24.1451C31.3266 24.1451 30.6565 24.1674 30.3326 24.5807C30.221 24.7147 30.0981 24.9604 30.1763 25.3177L30.1986 25.4071L30.2656 25.4629C30.9469 26.1218 31.3042 26.9148 31.1591 27.4397C31.0585 27.797 30.7458 28.0427 30.221 28.1767C29.7184 28.0874 29.0036 27.663 28.758 27.3615C28.3001 26.7919 27.8869 25.3959 28.0767 24.6365C28.4117 23.2963 29.7742 22.3582 31.4048 22.3582C32.5327 22.3582 33.5378 22.8385 34.1632 23.6761C35.1907 25.0609 35.9278 27.6965 35.3247 29.0032C34.5765 30.6449 32.488 32.3536 30.4666 32.979C29.9529 33.1353 29.428 33.2135 28.9255 33.2135C26.9599 33.2135 25.039 31.9962 23.5314 29.7961C21.711 27.1493 21.6105 24.3685 23.2298 21.7328C23.9111 20.6384 24.8492 19.6556 25.7649 18.7063C26.2005 18.2596 26.6472 17.8017 27.0604 17.3327C29.8859 14.1275 30.5672 10.4309 29.1042 6.33222C27.8533 2.81432 25.0949 0.658904 21.1302 0.0781702C20.7617 0.0223305 20.3932 0 20.0246 0C16.529 0 13.1898 2.25593 11.9055 5.4723C10.5989 8.74451 11.6151 12.3182 14.4295 14.3732C15.5016 15.1549 16.8864 15.5793 18.3159 15.5793C20.181 15.5793 21.8897 14.8422 22.9171 13.6026C24.905 11.1903 24.8938 8.45414 22.8724 6.64493C22.1912 6.03069 21.0074 5.80734 20.1251 5.80734C19.6784 5.80734 19.2875 5.86317 18.986 5.95252C18.2936 6.17588 16.7859 7.58304 16.7747 8.48765C16.7747 8.83385 16.9646 9.10188 17.322 9.22473L17.3778 9.24706H17.4336C17.5788 9.24706 17.6682 9.15772 17.8357 9.00137C18.1819 8.66633 18.9078 7.98509 19.9018 7.98509C20.2703 7.98509 20.6612 8.0856 21.0409 8.27545C21.3648 8.44297 21.4318 8.84502 21.4429 9.07955C21.4764 9.88364 20.9627 11.0451 20.0581 11.5923C19.5556 11.8939 18.785 12.0837 18.0479 12.0837C17.6235 12.0837 17.2326 12.0279 16.9311 11.905C15.859 11.503 15.1219 10.6431 14.8315 9.47042C14.4741 8.00742 14.9209 6.36573 15.9818 5.18193C17.0428 4.00929 18.5169 3.36155 20.1363 3.36155C22.113 3.36155 24.0116 4.34433 25.2065 5.99719C26.7589 8.13027 26.9934 10.8776 25.8319 13.3345C24.6593 15.8362 22.3252 17.422 19.6002 17.5895C19.4104 17.6007 19.2094 17.6007 19.0083 17.6007C17.5565 17.6007 16.0488 17.2992 14.597 17.0088C13.6365 16.8189 12.6426 16.6179 11.671 16.5062C11.2689 16.4616 10.8557 16.4392 10.4537 16.4392C5.29408 16.4392 0.849234 20.214 0.100981 25.2061C-0.624936 30.0753 2.63611 34.643 7.52767 35.6146C8.03023 35.7151 8.55512 35.771 9.05768 35.771C12.3634 35.771 15.2336 33.716 16.3615 30.5332C17.5342 27.2386 16.1717 23.8101 13.2568 22.7268C12.6091 22.4923 11.8385 22.3694 11.0121 22.3694C9.89528 22.3694 8.78965 22.5928 7.88505 22.9836C6.74592 23.4862 5.7408 25.4183 5.87481 26.8701C6.04233 28.8133 6.98044 29.2935 7.87388 29.7514L7.97439 29.8073C8.28709 29.9636 8.86783 30.1535 9.48206 30.1535C10.4313 30.1535 11.0567 29.7179 11.2354 28.925L11.2466 28.8915C11.3806 27.6183 10.3197 27.0823 9.61608 26.7137C9.39272 26.6021 9.01301 26.4122 8.99067 26.3117C8.99067 26.1665 9.29221 26.066 9.71659 26.066C10.7105 26.066 12.0507 26.5686 12.4081 27.2833C12.8548 28.1991 12.9665 29.7291 12.2852 30.7565C11.5146 31.9068 10.4872 32.4876 9.20286 32.4876C8.24242 32.4876 7.15913 32.1414 6.07584 31.5048C3.52954 29.986 2.64727 26.5016 4.09911 23.7319C5.55094 20.9622 7.99673 19.5886 11.1238 19.7784C14.5411 19.9795 17.0651 21.8669 18.4388 25.2396C18.7515 26.0213 18.986 26.8589 19.2094 27.663C19.4997 28.7351 19.8124 29.8408 20.315 30.8459C22.1577 34.4978 25.4076 36.508 29.4727 36.508C29.6179 36.508 29.7742 36.508 29.9194 36.4969C34.1409 36.3517 37.1898 34.2074 38.7198 30.2987C40.2609 26.3452 38.5187 21.7552 34.744 19.8454Z" fill="white"/>
</svg>
